<svg xmlns="http://www.w3.org/2000/svg" xml:space="preserve" viewBox="84.96 101.81 926.23 790.56"><path d="M706.546 474.512c-9.274-18.359-27.29-27.257-47.124-23.336-6.818 1.349-13.538 3.19-21.632 5.123 3.411-12.234 3.391-24.504 11.654-34.162 3.628-4.241 8.605-6.051 13.858-7.42 10.888-2.84 22.145-2.424 33.174-3.98.964-.135 2.037.02 2.872-1.133.511-2.397-1.295-4.142-2.383-6.107-11.315-20.435-21.588-41.303-28.277-63.814-10.414-35.05-4.6-68.448 9.537-101.153 14.192-32.832 34.455-61.17 62.18-83.906 21.46-17.598 46.449-26.083 73.967-27.985 27.962-1.933 54.073 5.42 79.885 14.925 29.07 10.704 58.362 20.757 89.11 25.631 7.23 1.146 14.535 1.81 21.884 1.752 1.94-.015 3.984-.387 5.64.682.855 1.79-.32 2.757-1.046 3.783-21.294 30.102-50.434 48.311-86.147 56.199-11.817 2.61-23.872 1.253-35.816.212-8.608-.75-17.199-1.706-25.807-2.466-1.584-.14-3.34-.534-5.403 1.309 6.74 14.36 15.151 28.345 19.062 44.924-4.14-1.285-6.605-3.794-9.4-5.69-18.17-12.331-37.14-23.299-58.825-27.794-34.44-7.138-60.551.558-81.512 30.912-11.389 16.493-20.752 34.223-25.066 54.064-3.43 15.779-.242 30.918 4.96 45.566 1.488.16 1.886-.414 2.137-1.013 5.947-14.186 16.226-25.034 27.094-35.48 6.724-6.462 13.27-13.116 19.743-19.833 2.256-2.342 3.947-2.655 5.989.089 1.489 2 3.112 3.922 4.838 5.723 13.334 13.913 11.54 27.971.616 42.195a158 158 0 0 1-13.852 15.742c-5.309 5.278-6.086 11.127-4.786 18.16 2.382 12.889 5.602 25.708 4.694 39.021-.344 5.049-1.772 9.845-3.252 14.581-6.857 21.936-11.377 44.495-17.864 66.521-6.216 21.107-14.868 40.851-30.098 57.415-14.041 15.27-31.63 22.13-51.558 24.462-4.624.54-9.296 1.045-13.936.964-3.947-.07-6.002 1.23-7.249 5.075-3.08 9.497-6.314 18.963-11.453 27.629-12.491 21.066-30.728 31.68-55.438 30.577-9.14-.407-18.282-.823-27.424-1.192-1.63-.065-3.33-.46-5.104.662-.25 4.289 2.169 7.826 4.02 11.414 8.806 17.056 22.252 30.218 36.436 42.706 6.715 5.912 13.573 11.66 20.269 17.398-.988 2.552-3.001 2.79-4.549 3.567-23.53 11.798-47.284 23.191-69.542 37.334-19.751 12.55-38.812 26.123-53 45.076-9.673 12.92-18.2 26.695-27.332 40.024-6.48 9.458-6.579 9.437-13.878.619-4.14-5-8.394-9.88-13.582-14.568-4.905 3.426-8.136 8.341-11.85 12.66-8.575 9.974-16.737 20.286-26.14 29.553-2.895 2.855-5.331 3.585-8.708 1.615-.142-.083-.319-.106-.464-.185-7.612-4.133-14.988-5.258-21.841 1.564-.68.677-1.695 1.05-2.603 1.454-.42.187-.957.111-1.923.198-2.307-7.938-5.082-15.95-4.657-24.21.365-7.12 5.64-12.625 9.306-18.536 2.338-3.77 5.021-7.324 7.99-11.611-8.307.128-15.376 1.939-22.358 3.85-4.524 1.24-7.364.374-8.926-4.174-.482-1.401-1.377-2.658-2.059-3.994-6.91-13.53-2.66-27.383 10.622-34.92 7.413-4.207 15.9-6.077 23.098-10.695 2.537-1.628 7.167-2.832 5.98-6.288-1.2-3.487-5.215-.547-7.997-.59-2.753-.041-5.398 2.04-8.832.138 2.257-12.13 5.118-24.05 16.309-31.546 6.345-4.25 13.372-4.964 20.295-.853 8.303 4.932 16.594 9.885 24.834 14.923 12.78 7.814 25.968 9.816 40.6 5.124 20.021-6.42 39.073-14.292 55-28.485 2.894-2.58 5.284-5.556 7.697-8.505 2.951-3.607.285-11.299-4.429-13.257-11.266-4.68-23.248-7.012-34.876-10.507-9.095-2.735-18.17-5.488-26.795-9.518-13.152-6.146-23.899-15.395-32.056-27.19-14.604-21.114-12.481-52.175 4.504-72.625 16.59-19.974 38.367-26.577 63.48-23.657 7.578.88 15.042 2.728 22.575 4.037 2.01.35 4.49 1.685 5.879-.8 1.151-2.062-.592-3.764-1.788-5.339-6.582-8.661-15.076-14.99-24.607-20.027-11.38-6.014-23.574-10.05-35.546-14.642-14.194-5.443-28.057-11.524-39.341-22.185-11.591-10.951-10.993-23.622 1.77-33.447 13.04-10.038 28.398-13.48 44.306-15.133 16.884-1.755 33.91-1.526 50.778-3.665 14.734-1.868 28.369-7.04 41.776-13.052 2.101-.943 4.067-2.33 7.218-2.264 2.422 6.785 4.897 13.788 7.42 20.774 9.343 25.861 20.915 50.515 39.546 71.187 9.093 10.088 19.482 18.732 31.626 24.935 21.479 10.97 36.946 9.004 55.011-7.016 17.403-15.431 27.079-35.13 31.031-57.839 1.533-8.805 2.11-17.538-2.14-26.26"/><path d="M525.724 423.725c-3.74.3-3.444 3.041-3.495 5.237-.125 5.329.074 10.665.03 15.997-.013 1.759.571 3.662-.758 5.273-2.185.602-3.413-1.097-4.848-2.063-9.674-6.511-19.34-13.038-28.905-19.705-2.744-1.912-4.9-1.752-7.657.091-9.825 6.57-19.362 13.552-29.598 19.538-17.541 10.257-36.577 14.889-56.609 16.207-7.322.482-14.553 1.673-21.68 3.258-5.487 1.22-8.695 5.886-12.332 9.768-3.353 3.578-5.759 8.041-9.636 11.034-2.032-1.117-1.932-2.809-2.046-4.175-2.622-31.498-2.617-62.73 5.688-93.692 8.72-32.514 28.17-56.449 55.727-74.676 15.884-10.506 32.865-19.023 49.647-27.906 10.017-5.301 19.898-10.83 29.741-16.445 28.262-16.122 43.527-41.267 50.704-72.155 2.491-10.72 4.254-21.53 4.47-32.57.04-2.068-.055-4.304 1.253-6.122 1.663-.22 2.083 1.087 2.675 1.989 16.12 24.593 28.067 50.947 34.427 79.8 7.107 32.238 4.257 63.383-8.258 93.927-5.923 14.454-10.811 29.309-13.213 44.913-2.1 13.637-.445 26.486 5.706 38.806 2.807 5.622 5.512 11.295 8.908 18.27-17.986-3.056-33.726-9.004-49.941-14.6M310.437 681.51c-17.413 5.864-33.07 14.46-49.144 24.572 1.553-5.793 3.022-10.329 3.965-14.97 2.383-11.724-5.37-23.259-17.09-25.552-4.844-.948-8.767 1.249-12.255 4.33-4.906 4.333-8.92 9.52-12.572 14.844-6.166 8.992-15.026 12.74-25.162 14.565-2.292.413-4.687.527-6.86 1.283-6.598 2.295-11.855.918-17.104-3.919-3.617-3.332-4.867-6.681-5.814-11.359-2.008-9.912 1.459-17.88 6.397-25.791 1.018-1.631 2.343-3.242 2.264-5.958-10.88 2.354-21.111 5.53-28.129 14.64-2.388 3.1-4.001 3.253-6.66.7-4.204-4.04-8.53-7.91-11.653-12.953-11.01-17.778-1.036-39.095 19.606-42.368 10.126-1.606 19.88.453 29.756 1.658 1.634.199 3.235.706 4.905.124.368-2.361-1.519-3.312-2.66-4.582-8.237-9.17-16.482-18.335-24.872-27.364-2.19-2.357-2.257-4.421-.887-7.165 10.791-21.609 40.619-27.742 58.964-12.046 5.797 4.96 8.778 11.575 10.971 18.678 3.192 10.336 4.566 21.098 7.684 31.48 2.367 7.882 6.984 13.194 14.325 16.163 13.054 5.278 26.3 9.78 40.716 6.076a43 43 0 0 0 5.674-1.904c11.68-4.815 13.847-9.03 12.465-21.533-1.26-11.396-3.503-22.71-3.54-34.217-.09-27.388 25.706-50.706 52.947-48.455 12.415 1.026 23.083 6.152 33.293 12.532 9.42 5.885 18.221 12.673 27.663 20.15-4.815 3.278-9.016 6.13-13.208 8.994-11.992 8.194-22.265 18.096-29.183 30.982-10.597 19.74-11.14 40.378-4.662 61.48.977 3.18 2.019 6.34 2.987 9.522.135.445.018.966.018 2.445-21.386-3.76-42.303-1.927-63.145 4.918m-75.933-446.99c19.535 30.775 47.47 50.903 79.477 66.093 15.702 7.452 32.16 12.774 48.99 16.992 1.442.362 2.988.458 3.94 2.174-.173.473-.274 1.161-.633 1.667-9.751 13.745-18.234 28.262-26.176 43.101-1.2 2.243-2.755 2.921-5.198 2.896-13.497-.142-26.996-.235-40.492-.13-3.507.027-5.398-1.341-5.83-4.666-1.333-10.246-7.517-15.737-16.943-19.204-10.293-3.785-20.203-8.615-29.688-14.256-9.576-5.695-14.355-15.014-19.117-24.402-.979-1.93-1.963-3.875-2.71-5.9-5.466-14.824-16.358-23.327-31.235-27.632-7.97-2.306-8.423-2.708-7.674-10.691 1.543-16.433-7.625-26.661-19.676-35.092-11.104-7.767-23.998-11.342-37.11-14.106-3.088-.65-6.136-1.496-9.233-2.099-2.175-.423-3.71-1.606-4.497-3.555-3.401-8.434-9.278-13.96-18.26-16.031-.918-.212-1.903-.703-2.382-2.533 11.676-9.096 25.439-15.35 38.254-23.088-1.292-2.691-3.504-3.32-5.332-4.318-12.173-6.645-19.68-17.146-24.857-29.644-1.289-3.11-.88-5.064 2.506-6.741 8.19-4.057 15.9-9.097 25.075-10.95 10.127-2.045 20.925 2.519 26.22 11.32 3.214 5.341 5.354 11.218 6.56 17.201 1.627 8.064 6.954 11.988 14.606 15.295 1.84-16.315 7.606-30.906 17.374-44.919 9.045 7.531 19.602 12.73 25.17 23.315 4.607 8.758 2.256 18.295 2.008 27.535-.527 19.57-.346 39.03 8.528 57.164 2.485 5.078 5.411 9.94 8.335 15.203"/><path d="M495.568 233.637c-15.447 10.838-32.806 15.132-50.75 17.656-22.936 3.228-46.145 2.782-69.162 5.003-10.061.97-10.09.769-13.316-9.161-.505-1.554-.886-3.147-1.437-5.128 5.055-1.826 10.105-1.338 14.954-1.957 5.274-.674 10.556-1.16 15.79-2.198 12.458-2.471 20.97-9.404 25.49-21.377 5.652-14.973 7.007-29.835-1.18-44.301-6.573-11.611-18.92-16.996-32.18-15.405-12.345 1.481-23.911 5.74-35.782 8.937-2.171.585-4.34 1.776-7.377.363 4.741-11.872 7.91-24.131 22.297-29.131 23.42-8.14 46.587-17.034 69.726-25.959 14.009-5.403 27.512-2.506 41.08 1.302 6.41 1.799 12.816 3.54 19.36 4.834 8.054 1.593 15.494.645 22.463-3.856 5.829-3.765 11.766-7.363 18.312-11.444 2.377 9.127 4.583 17.559 4.379 26.403-.027 1.174-1.061 2.405-1.825 3.468-3.4 4.732-6.465 9.792-10.406 14.03-7.398 7.953-7.59 17.2-6.287 27.04 1.223 9.23 2.403 18.49 1.158 27.827-1.867 13.998-12.168 22.027-21.746 30.545-.988.879-2.175 1.536-3.56 2.509m-191.56 174.238c8.172-1.042 15.337-4.37 22.923-6.194 1.77 2.95.487 5.612.309 8.12-1.184 16.637-1.472 33.272-.146 49.901.372 4.66-1.157 6.35-5.97 6.782-16.404 1.475-32.09-2.062-47.71-6.12-9.012-2.34-18.009-4.865-26.782-7.96-10.046-3.543-19.332-2-28.395 2.729-7.968 4.157-15.805 8.566-23.771 12.728-5.306 2.772-5.935 2.348-6.875-3.664-.642-4.105-1.031-8.28-2.06-12.29-2.213-8.63-7.622-11.487-16.163-8.891-3.537 1.075-7.156 2.423-9.713 4.972-8.388 8.364-18.697 11.479-30.114 12.256-3.633.247-7.278.872-10.825 1.716-4.352 1.035-6.366-.843-6.737-4.87-.627-6.813-.798-13.635 1.088-20.321 2.212-7.841 4.363-15.703 6.754-23.49.88-2.867.065-4.229-2.611-5.313-8.32-3.37-17.035-4.364-25.881-4.677-6.584-.232-6.963-.594-5.949-6.959.68-4.264 1.518-8.504 2.233-12.763 1.088-6.487 4.975-10.621 10.749-13.425 5.576-2.708 11.432-4.61 17.347-6.296 3.954-1.127 4.379-3.019 2.95-6.593-3.212-8.032-6.074-16.205-9.046-24.332-.62-1.695-1.477-3.378-.933-5.282 21.062-5.452 35.16-5.613 48.708 9.194 6.354 6.943 10.47 15.464 14.032 24.073 6.692 16.172 17.973 27.155 34.364 33.396 9.335 3.555 18.51 7.617 28.199 10.025 22.932 5.699 46.071 8.878 70.025 3.548"/><path d="M398.834 217.781c-26.414 2.944-52.159 8.63-78.61 8.903-15.3.157-28.972-3.08-41.041-12.554-4.012-3.149-8.038-6.28-12.274-9.59 2.95-2.984 6.207-1.853 8.964-2.248 17.793-2.549 35.187-7.182 52.924-9.963 8.531-1.337 17.108-2.82 25.708-3.163 8.472-.34 16.336 2.712 23.399 7.512 7.344 4.991 13.618 11.202 19.798 17.51.886.905 2.159 1.749 1.132 3.593"/></svg>